# xmcd CD database file
#
# Track frame offsets:
#	182
#	15977
#	37657
#	55347
#	71975
#	94850
#	112345
#	131280
#	146880
#	163455
#	179120
#	200842
#
# Disc length: 3001 seconds
#
# Revision: 6
# Processed by: cddbd v1.5.2PL0 Copyright (c) Steve Scherf et al.
# Submitted via: CDex 1.51
#
DISCID=bb0bb70c
DTITLE=Diego Modena et Jean-Philippe Audin - Ocarina II
DYEAR=1994
DGENRE=New Age
TTITLE0=Ocarina II
TTITLE1=Simple Merlene
TTITLE2=Camilleva
TTITLE3=Flying Officer
TTITLE4=Cantica (flute solo)
TTITLE5=Irwin
TTITLE6=No No Stranger
TTITLE7=Lonely Singer
TTITLE8=Les Oiseaux
TTITLE9=Ocarina II (flute solo)
TTITLE10=Sparrow Dream
TTITLE11=Cantica
EXTD=YEAR: 1994
EXTT0=
EXTT1=
EXTT2=
EXTT3=
EXTT4=
EXTT5=
EXTT6=
EXTT7=
EXTT8=
EXTT9=
EXTT10=
EXTT11=
PLAYORDER=
